<?xml version="1.0" encoding="iso-8859-1"?>
<!-- Generator: Adobe Illustrator 17.0.0, SVG Export Plug-In . SVG Version: 6.00 Build 0)  -->
<!DOCTYPE svg PUBLIC "-//W3C//DTD SVG 1.1//EN" "http://www.w3.org/Graphics/SVG/1.1/DTD/svg11.dtd">
<svg version="1.1" id="Capa_1" xmlns="http://www.w3.org/2000/svg" xmlns:xlink="http://www.w3.org/1999/xlink" x="0px" y="0px"
	 width="64px" height="64px" viewBox="0 0 64 64" style="enable-background:new 0 0 64 64;" xml:space="preserve">
<g>
	<path d="M3.337,30.4c-0.023,0.969,0.331,1.351,0.615,1.658c0.091,0.099,0.17,0.184,0.23,0.285c0.134,0.225,0.229,0.504,0.283,0.831
		c1.171,7.101,1.435,8.068,4.407,9.634c1.423,0.75,4.348,1.253,7.279,1.253c2.285,0,5.586-0.301,8.331-1.733
		c3.999-2.087,5.489-9.29,5.559-9.652c0.004-0.037,0.122-0.896,1.949-0.896c0,0,0.002,0,0.002,0l0.112-0.001
		c1.734,0,1.853,0.86,1.865,0.953c0.062,0.306,1.552,7.508,5.551,9.596c2.745,1.433,6.046,1.733,8.331,1.733
		c2.931,0,5.856-0.504,7.279-1.253c2.972-1.566,3.236-2.534,4.407-9.635c0.054-0.326,0.149-0.605,0.283-0.831
		c0.06-0.101,0.139-0.186,0.23-0.285c0.284-0.307,0.638-0.69,0.615-1.658c-0.004-0.162,0.003-0.451,0.01-0.767
		c0.011-0.483,0.022-1.027,0.005-1.32c-0.084-1.436-1.354-2.021-1.994-2.125c-4.089-0.84-8.998-1.083-14.18-0.711l-0.271,0.019
		c-3.161,0.224-4.902,0.347-6.977,1.276c-0.482,0.216-0.977,0.46-1.415,0.685c-0.781,0.402-1.908,0.838-2.513,0.971
		c-0.244,0.054-0.491,0.107-0.71,0.151c-0.315,0.064-0.924,0.064-1.239,0c-0.219-0.045-0.466-0.097-0.71-0.151
		c-0.604-0.133-1.731-0.569-2.512-0.971c-0.438-0.225-0.933-0.469-1.415-0.685c-2.075-0.929-3.816-1.052-6.977-1.276l-0.271-0.019
		c-5.184-0.371-10.1-0.127-14.16,0.708c-0.659,0.108-1.929,0.693-2.013,2.129c-0.018,0.293-0.006,0.837,0.005,1.32
		C3.334,29.95,3.341,30.239,3.337,30.4z M59.488,28.636v1.062l-1.323-0.531L59.488,28.636z M36.541,30.16
		c0.2-0.497,1.461-2.153,9.281-2.608c1.371-0.08,2.534-0.119,3.556-0.119c4.611,0,6.079,0.829,6.952,2.166
		c0.522,0.8,0.878,2.473,0.882,3.534c0.009,2.316-0.456,6.434-3.668,7.99c-1.472,0.713-3.679,1.139-5.903,1.139
		c-4.268,0-7.68-1.451-9.125-3.881C35.477,33.276,36.504,30.245,36.541,30.16z M7.67,29.598c0.874-1.337,2.341-2.166,6.952-2.166
		c1.022,0,2.185,0.039,3.556,0.119c7.819,0.456,9.081,2.112,9.305,2.667c0.012,0.027,1.039,3.059-1.997,8.163
		c-1.446,2.43-4.857,3.881-9.125,3.881c-2.225,0-4.432-0.426-5.904-1.139c-3.212-1.556-3.677-5.674-3.668-7.99
		C6.793,32.071,7.148,30.398,7.67,29.598z M4.511,28.636l1.323,0.531l-1.323,0.531V28.636z"/>
</g>
</svg>
