<?xml version="1.0" encoding="iso-8859-1"?>
<!-- Generator: Adobe Illustrator 17.0.2, SVG Export Plug-In . SVG Version: 6.00 Build 0)  -->
<!DOCTYPE svg PUBLIC "-//W3C//DTD SVG 1.1//EN" "http://www.w3.org/Graphics/SVG/1.1/DTD/svg11.dtd">
<svg version="1.1" id="Capa_1" xmlns="http://www.w3.org/2000/svg" xmlns:xlink="http://www.w3.org/1999/xlink" x="0px" y="0px"
	 width="100px" height="100px" viewBox="0 0 100 100" style="enable-background:new 0 0 100 100;" xml:space="preserve">
<g>
	<path style="fill:#1E1E1C;" d="M83.547,6.316c-0.158-1.312-1.24-1.994-2.284-2.049c-0.208-0.065-0.431-0.111-0.685-0.111
		C63.12,4.178,42.427,4.664,24.969,4.427c-0.302-0.004-0.565,0.051-0.802,0.139c-1.226-0.277-2.704,0.391-2.707,2.021
		c-0.005,2.79-0.031,5.58-0.067,8.37c-2.014,0.665-3.828,1.823-5.205,3.666c-3.147,4.214,0.291,9.535,3.476,12.436
		c0.447,0.407,0.941,0.571,1.421,0.575c-0.012,0.568-0.023,1.137-0.035,1.705c-1.768,0.598-3.368,1.542-4.564,3
		c-3.322,4.049-0.602,8.96,2.369,12.266c0.355,0.395,0.753,0.586,1.152,0.65c0.238,0.269,0.484,0.528,0.763,0.756
		c-0.002,0.272-0.004,0.543-0.007,0.815c-2.516,0.698-4.754,2.055-6.016,4.457c-2.604,4.954,2.144,9.451,6.074,11.692
		c0.003,0.134,0.008,0.267,0.01,0.401c-1.865,0.922-3.456,2.257-4.406,4.208c-2.256,4.633,1.557,8.848,5.05,11.456
		c0.058,0.904,0.122,1.809,0.187,2.713c-0.074,0.237-0.108,0.505-0.078,0.813c0.292,2.995,0.829,5.906,1.918,8.721
		c0.379,0.981,1.234,1.405,2.076,1.413c0.222,0.08,0.465,0.134,0.745,0.133c18.715-0.01,37.434-0.3,56.073-2.106
		c0.143-0.014,0.274-0.044,0.401-0.079c1.094,0.057,2.232-0.614,2.231-2.027c0-2.462-0.01-4.92-0.263-7.371
		c-0.021-0.206-0.073-0.39-0.137-0.565C84.692,58.558,86.691,32.346,83.547,6.316z M18.668,57.096
		c0.443-0.842,1.181-1.419,2.066-1.817c-0.007,2.172-0.002,4.344,0.016,6.515C19.135,60.566,17.718,58.904,18.668,57.096z
		 M20.125,38.735c0.247-0.255,0.529-0.469,0.824-0.666c-0.041,2.069-0.078,4.137-0.111,6.206
		C19.543,42.585,18.474,40.442,20.125,38.735z M20.367,73.324c0.157-0.322,0.36-0.613,0.596-0.878
		c0.049,1.518,0.106,3.036,0.174,4.554C20.255,75.894,19.737,74.618,20.367,73.324z M21.194,26.48
		c-1.439-1.63-2.526-3.649-1.277-5.678c0.349-0.568,0.837-0.999,1.408-1.332C21.286,21.807,21.242,24.143,21.194,26.48z
		 M27.029,92.619c-0.326-1.039-0.591-2.09-0.798-3.156c17.156,0.102,37.366,1.86,54.507-1.5c0.039,0.896,0.062,1.793,0.071,2.69
		C62.927,92.304,44.977,92.603,27.029,92.619z M80.315,83.652c-16.658,3.443-37.053,1.607-53.933,1.494
		c-0.021-0.001-0.042-0.006-0.063-0.006h-0.381c-0.356-4.948-0.579-9.899-0.715-14.851c1.26-0.297,2.528-0.444,3.526-0.536
		c2.75-0.254,2.774-4.575,0-4.319c-1.158,0.107-2.387,0.268-3.611,0.522c-0.066-3.822-0.099-7.644-0.084-11.467
		c1.173-0.019,2.291,0.064,3.155,0.147c2.773,0.266,2.747-4.055,0-4.319c-0.99-0.095-2.048-0.135-3.123-0.103
		c0.044-4.472,0.12-8.945,0.21-13.418c1.507-0.122,3.027-0.056,4.262,0.025c2.782,0.181,2.765-4.139,0-4.319
		c-1.318-0.086-2.743-0.105-4.175,0.004c0.099-4.669,0.2-9.339,0.275-14.008c1.336-0.024,2.639,0.108,3.63,0.237
		c2.756,0.359,2.721-3.965,0-4.319c-1.178-0.153-2.38-0.224-3.571-0.185c0.022-1.826,0.04-3.651,0.049-5.477
		C42.587,8.96,62.644,8.519,79.463,8.48C82.21,33.456,80.424,58.591,80.315,83.652z"/>
	<path style="fill:#1E1E1C;" d="M48.09,42.667c1.82,1.29,3.882,1.972,5.961,1.972c2.722,0,5.402-1.144,7.546-3.22
		c0.614-0.594,1.19-1.226,1.327-1.389c0.073-0.087,0.14-0.188,0.198-0.298c2.062-3.894,1.716-7.923-0.949-11.054
		c-0.625-0.736-1.183-1.362-1.387-1.559c-0.109-0.105-0.243-0.199-0.396-0.278c-1.849-0.951-3.723-1.433-5.569-1.433
		c-2.539,0-4.988,0.899-7.28,2.671c-0.109,0.084-0.202,0.176-0.276,0.272c-0.173,0.222-0.696,0.938-1.159,1.618
		C43.052,34.452,43.867,39.673,48.09,42.667z M49.52,30.674c0.051-0.053,0.094-0.107,0.133-0.161
		c0.156-0.216,0.827-0.797,1.608-1.19c1.722-0.864,3.648-1.05,5.565-0.538c0.895,0.239,2.133,1.003,2.76,1.705
		c1.621,1.815,2.133,3.928,1.481,6.107c-0.235,0.788-0.634,1.536-0.773,1.681c-1.496,2.008-3.58,3.094-5.901,3.094
		c-2.835,0-5.525-1.647-6.54-4.006C47.309,36.099,46.801,33.547,49.52,30.674z"/>
	<path style="fill:#1E1E1C;" d="M74.472,58.889c-0.016-0.493-0.027-0.987-0.038-1.481c-0.034-1.477-0.069-3.004-0.214-4.506
		c-0.052-0.54-0.132-1.248-0.289-1.937c-0.25-1.103-0.652-1.97-1.228-2.65c-0.95-1.122-2.859-2.049-4.442-2.159
		c-1.1-0.075-2.221-0.05-3.338-0.021c-0.562,0.014-1.124,0.028-1.681,0.028l-5.942-0.06c-1.148-0.01-2.296-0.017-3.444-0.017
		c-3.042,0-5.553,0.049-7.903,0.155c-2.27,0.102-4.338,0.254-6.319,0.463c-0.217-0.018-0.447,0.009-0.671,0.077
		c-2.03,0.62-3.667,2.023-4.493,3.851C34.388,50.812,34.331,51,34.3,51.19c-0.099,0.22-0.152,0.459-0.157,0.712
		c-0.021,1.078-0.046,2.156-0.072,3.234c-0.117,4.97-0.237,10.109,0.073,15.176c0.039,0.629,0.365,1.155,0.899,1.453
		c0.292,0.255,0.664,0.389,1.078,0.389c2.177,0,4.483-0.008,6.772-0.101l0.008,1.697c0,0.288,0.064,0.56,0.163,0.748
		c0.238,0.676,0.817,1.081,1.549,1.082c3.438,0.004,6.877,0.039,10.316,0.075c3.415,0.035,6.831,0.07,10.246,0.074h0.001
		c0.616,0,1.134-0.293,1.423-0.804c0.29-0.513,0.304-1.159,0.045-1.685l-0.003-0.25c1.84-0.081,3.672-0.093,5.387-0.093
		c0.324,0,0.624-0.083,0.88-0.241c0.026,0.001,0.052,0.001,0.078,0.001h0c0.498,0,0.97-0.188,1.297-0.514
		c0.315-0.316,0.482-0.74,0.481-1.225c-0.007-3.251-0.115-6.545-0.22-9.73L74.472,58.889z M63.07,72.336
		c-2.726-0.012-5.451-0.038-8.177-0.064c-2.812-0.027-5.624-0.055-8.436-0.065c-0.01-1.801-0.028-4.003-0.047-6.203
		c-0.025-2.858-0.049-5.714-0.053-7.684c-0.003-1.784-2.175-2.133-3.081-1.224c-0.316,0.316-0.483,0.74-0.482,1.226
		c0.004,1.958,0.028,4.794,0.053,7.639l0.023,2.71c-1.832,0.074-3.643,0.093-5.236,0.098c-0.208-4.575-0.1-9.224,0.004-13.726
		c0.022-0.973,0.045-1.945,0.064-2.919c0.473-0.922,1.18-1.55,2.104-1.868c3.228-0.339,6.674-0.524,10.841-0.584
		c3.186-0.046,6.373-0.011,9.559,0.024l2.379,0.02c0.61,0,1.221-0.005,1.831-0.009c0.608-0.005,1.216-0.01,1.824-0.01l0.685-0.001
		c1.071,0,2.09,0.057,2.788,0.74c0.657,0.643,0.821,1.368,0.874,2.329c0.034,0.628,0.076,1.257,0.117,1.885
		c0.05,0.753,0.099,1.507,0.136,2.261c0.12,2.45,0.213,5.109,0.293,8.369c0.035,1.413,0.049,2.826,0.058,4.239
		c-1.418,0.004-3.016,0.022-4.616,0.093c-0.099-3.703-0.289-8.464-0.46-11.531c-0.098-1.767-2.276-2.093-3.137-1.185
		c-0.305,0.322-0.451,0.751-0.424,1.241C62.755,61.768,63.005,68.19,63.07,72.336z"/>
</g>
</svg>
